<svg width="87" height="72" viewBox="0 0 87 72" fill="none" xmlns="http://www.w3.org/2000/svg">
<path d="M29 30L24 35.5L22.5 34.5L20 33L17 31.5L14.5 33L13 35.5V37V39L14.5 40V42L17 43.5L18.5 45.5L11 55L9 56H7.5L5.5 57L4 58L2.5 58.5V61.5L4 63L5.5 65.5L6.5 67.5L11 69H12H14.5V67.5L16 65.5L17 63L18.5 61.5L21.5 58L24 55L26.5 52L29 53.5L30.5 55L32 57L35 58L37 58.5L39.5 57L40 55V53.5V52L38 48L43.5 43.5L48 49.5L47 50.5L45.5 52V53.5V55L47 58H48.5H50.5H53.5L61.5 52L70.5 61.5V63L72 65.5L74 67.5L76 69L78.5 67.5L81 65.5L82 61.5V58L79.5 55H76L66.5 45.5L74 37L68.5 31.5L64 35.5L58 30L72 16L74 0.5H59.5L43.5 16L29 0.5H14.5V16L29 30Z" fill="#C4C4C4" stroke="black" stroke-width="0.2"/>
<path d="M57 50.6383V51.2553H57.6279L58.2558 50.6383L60.7674 53.1064L69.5581 62.3617V64.2128L70.186 65.4468C70.6047 66.0638 71.5674 67.4213 72.0698 67.9149L74.5814 70.383L76.4651 71L78.3488 70.383L80.2326 69.1489L82.7442 67.2979L84 62.3617V58.0426L80.8605 54.3404H76.4651L72.6977 50.6383L66.4186 44.4681L65.1628 43.234L64.5349 42.617V42L63.907 42.617L63.2791 43.234H62.6512H62.0233L61.3953 43.8511L60.7674 44.4681L60.1395 45.0851L58.2558 46.9362V47.5532L57.6279 48.1702V48.7872L57 49.4043V50.6383Z" fill="#FE6091" stroke="black" stroke-width="0.3"/>
<path d="M21.5808 40.6105L20.9571 40.6542L21.0007 41.2778L21.668 41.8579L19.3478 44.5269L10.6035 53.9123L8.73251 54.0432L7.5288 54.754C6.93421 55.2134 5.62903 56.2656 5.165 56.7995L2.8448 59.4685L2.35197 61.3831L3.10646 63.2105L4.48461 64.9942L6.53003 67.358L11.6065 68.2565L15.9721 67.9512L19.496 64.5712L19.1908 60.2056L22.6711 56.202L28.4715 49.5293L29.6316 48.1948L30.2117 47.5275L30.8353 47.4839L30.1681 46.9039L29.5008 46.3238L29.4572 45.7002L29.4136 45.0765L28.7463 44.4964L28.079 43.9164L27.4118 43.3363L25.41 41.5962L24.7863 41.6398L24.119 41.0598L23.4954 41.1034L22.8281 40.5233L21.5808 40.6105Z" fill="#FE6091" stroke="black" stroke-width="0.3"/>
<path d="M24 36L21.5 34L19 32.5L17.5 31.5L14.5 32.5L12.5 36V39L14.5 41.5L17.5 44L19 46L21.5 47.5L24 49.5L26.5 51.5L28.5 53L30 54.5L31.5 56L33 57.5L35.5 58H38L40 56V54.5V53V51.5L39 49L38 48H37L35.5 47.5L34 46L33 45L31.5 43.5L29.5 42L28.5 41.5L27.5 40L26.5 39L25.5 38.5L24.5 37L24 36Z" fill="#FDD64B" stroke="black" stroke-opacity="0.5" stroke-width="0.5"/>
<path d="M49.0492 46.999L46.6125 49.5507L44.7246 52.1505L43.4822 53.7008L44.2907 57.0907L47.9402 59.6239L51.2337 59.9132L54.1711 57.9587L57.2049 54.9063L59.5452 53.4524L61.433 50.8525L63.8698 48.3008L66.3065 45.7492L68.1461 43.6982L69.9375 42.1961L71.7289 40.694L73.5202 39.192L74.3102 36.4956L74.5513 33.7511L72.5486 31.3626L70.9018 31.2179L69.2551 31.0733L67.6084 30.9286L64.7674 31.7853L63.5731 32.7867L63.4767 33.8845L62.7831 35.483L60.9918 36.9851L59.7975 37.9865L58.0061 39.4886L56.1665 41.5396L55.5212 42.5892L53.778 43.5423L52.5837 44.5437L51.9384 45.5933L50.1952 46.5465L49.0492 46.999Z" fill="#FDD64B" stroke="black" stroke-opacity="0.5" stroke-width="0.5"/>
<circle cx="77.5" cy="62.5" r="9.4" fill="#FED253" stroke="black" stroke-width="0.2"/>
<circle cx="10.5" cy="62.5" r="9.4" fill="#FED253" stroke="black" stroke-width="0.2"/>
</svg>
